<svg width="24" height="24" viewBox="0 0 24 24" fill="none" xmlns="http://www.w3.org/2000/svg">
<path d="M15.6722 11.8792C15.5971 11.8441 15.5208 11.8103 15.4435 11.778C15.3089 9.36015 13.954 7.97596 11.6789 7.9618C11.6686 7.96173 11.6583 7.96173 11.648 7.96173C10.2872 7.96173 9.15544 8.5281 8.45885 9.55871L9.71009 10.3956C10.2305 9.62579 11.0472 9.46167 11.6486 9.46167C11.6556 9.46167 11.6625 9.46168 11.6694 9.46174C12.4185 9.46639 12.9838 9.67876 13.3497 10.0929C13.6159 10.3944 13.794 10.8111 13.8822 11.3369C13.218 11.2268 12.4997 11.193 11.7318 11.2359C9.56876 11.3574 8.17817 12.5875 8.27156 14.2967C8.31896 15.1637 8.76194 15.9096 9.51885 16.3968C10.1588 16.8087 10.983 17.0101 11.8396 16.9645C12.9709 16.9041 13.8584 16.4832 14.4775 15.7137C14.9477 15.1293 15.2451 14.372 15.3764 13.4178C15.9155 13.7351 16.3151 14.1525 16.5357 14.6544C16.911 15.5075 16.9329 16.9094 15.7597 18.0523C14.7319 19.0535 13.4963 19.4866 11.6291 19.5C9.55782 19.4851 7.99135 18.8374 6.97288 17.5749C6.01916 16.3928 5.52627 14.6854 5.50788 12.5C5.52627 10.3146 6.01916 8.60714 6.97288 7.42503C7.99135 6.16262 9.55779 5.51495 11.6291 5.49994C13.7153 5.51506 15.3091 6.16585 16.3666 7.43435C16.8851 8.05641 17.276 8.8387 17.5337 9.75081L19 9.36936C18.6876 8.24665 18.1961 7.2792 17.5272 6.47686C16.1715 4.85059 14.1888 4.01728 11.6342 4H11.6239C9.07449 4.01722 7.11399 4.8537 5.79693 6.48619C4.62493 7.9389 4.02038 9.96024 4.00006 12.494L4 12.5L4.00006 12.506C4.02038 15.0397 4.62493 17.0611 5.79693 18.5138C7.11399 20.1463 9.07449 20.9828 11.6239 21H11.6342C13.9008 20.9847 15.4984 20.4061 16.8146 19.1239C18.5366 17.4465 18.4848 15.3439 17.9172 14.0531C17.51 13.1275 16.7337 12.3757 15.6722 11.8792ZM11.7587 15.4668C10.8106 15.5188 9.82572 15.1039 9.77716 14.2152C9.74116 13.5563 10.2581 12.8211 11.8168 12.7335C11.9954 12.7234 12.1705 12.7185 12.3426 12.7185C12.9088 12.7185 13.4385 12.7722 13.92 12.8748C13.7404 15.062 12.6869 15.4171 11.7587 15.4668Z" fill="#343432"/>
</svg>
